<svg xmlns="http://www.w3.org/2000/svg" width="30" height="30" viewBox="0 0 30 30">
<g>
	<g clip-path="url(#clip-005E2401-079E-1234-50F1-94958D2086FA)" opacity=".9">
	<path fill="#f7931a"
		d="M29.548 18.629c-2.003 8.036-10.142 12.926-18.18 10.922C3.336 27.547-1.554 19.408.45 11.373 2.452 3.336 10.591-1.555 18.625.45c8.036 2.003 12.926 10.144 10.923 18.18" />
	</g>
	<g opacity=".9">
	<path fill="#fff"
		d="M19.357 15.558c1.504.778 2.269 1.971 1.54 4.04-.905 2.57-3.054 2.787-5.912 2.25l-.694 2.763-1.676-.415.685-2.727a63.298 63.298 0 0 1-1.336-.344l-.687 2.74-1.674-.416.694-2.769c-.392-.1-.79-.206-1.195-.307l-2.182-.54.833-1.907s1.234.326 1.217.302c.475.117.685-.191.769-.396l1.096-4.368.177.043a1.373 1.373 0 0 0-.174-.055l.782-3.118c.02-.355-.103-.801-.782-.97.027-.017-1.216-.3-1.216-.3l.445-1.78 2.312.574-.002.008c.348.086.706.168 1.07.25l.687-2.736 1.675.415-.673 2.683c.45.102.903.205 1.343.314l.668-2.665 1.677.415-.687 2.737c2.116.725 3.664 1.811 3.36 3.832zm-5.928-.106l-.92 3.668c1.136.28 4.64 1.399 5.159-.67zm1.256-5.006l-.835 3.318c.946.234 3.863 1.187 4.336-.69z" />
	</g>
</g>
</svg>